<svg id="svg" version="1.1" xmlns="http://www.w3.org/2000/svg" xmlns:xlink="http://www.w3.org/1999/xlink" width="400" height="710.5555555555555" viewBox="0, 0, 400,710.5555555555555"><g id="svgg"><path id="path0" d="M1.429 1.429 C 0.656 2.202,0.442 707.383,1.214 708.826 C 1.626 709.596,198.577 710.121,200.567 709.357 C 201.143 709.136,201.200 695.459,201.200 558.357 L 201.200 407.600 195.603 407.600 C 190.440 407.600,189.968 407.538,189.507 406.800 C 189.082 406.119,188.574 406.000,186.085 406.000 C 183.481 406.000,183.061 405.891,182.235 405.000 C 181.505 404.213,180.917 404.000,179.468 404.000 C 178.038 404.000,177.533 403.822,177.200 403.200 C 176.901 402.641,176.362 402.400,175.413 402.400 C 174.405 402.400,173.988 402.193,173.800 401.600 C 173.614 401.014,173.195 400.800,172.235 400.800 C 171.432 400.800,170.643 400.490,170.200 400.000 C 169.802 399.560,169.118 399.200,168.680 399.200 C 168.185 399.200,165.888 397.157,162.607 393.800 C 159.705 390.830,157.237 388.400,157.122 388.400 C 156.771 388.400,152.800 384.308,152.800 383.946 C 152.800 383.760,152.440 383.382,152.000 383.107 C 151.536 382.817,151.200 382.174,151.200 381.576 C 151.200 380.974,150.783 380.182,150.200 379.675 C 149.565 379.122,149.200 378.384,149.200 377.649 C 149.200 376.830,148.967 376.432,148.400 376.284 C 147.721 376.107,147.600 375.738,147.600 373.852 C 147.600 372.038,147.453 371.549,146.800 371.200 C 146.139 370.846,146.000 370.362,146.000 368.413 C 146.000 366.405,145.881 366.016,145.200 365.800 C 143.954 365.405,143.954 347.085,145.200 346.307 C 145.838 345.909,146.000 345.374,146.000 343.666 C 146.000 341.862,146.126 341.492,146.800 341.316 C 147.485 341.137,147.600 340.770,147.600 338.757 C 147.600 336.840,147.747 336.315,148.400 335.907 C 148.840 335.632,149.200 335.016,149.200 334.536 C 149.200 333.275,149.609 332.400,150.200 332.400 C 150.802 332.400,151.200 331.521,151.200 330.194 C 151.200 329.605,151.499 329.159,152.000 329.000 C 152.440 328.860,152.800 328.500,152.800 328.200 C 152.800 327.900,153.160 327.540,153.600 327.400 C 154.040 327.260,154.400 326.924,154.400 326.652 C 154.400 326.039,156.871 323.600,157.492 323.600 C 157.742 323.600,158.057 323.249,158.194 322.820 C 158.330 322.392,158.792 321.930,159.220 321.794 C 159.649 321.657,160.000 321.300,160.000 321.000 C 160.000 320.700,160.360 320.340,160.800 320.200 C 161.240 320.060,161.600 319.700,161.600 319.400 C 161.600 319.100,161.960 318.740,162.400 318.600 C 162.840 318.460,163.200 318.071,163.200 317.736 C 163.200 317.400,163.554 317.033,163.987 316.919 C 164.419 316.806,164.882 316.373,165.014 315.957 C 165.146 315.541,165.500 315.200,165.800 315.200 C 166.100 315.200,166.460 314.840,166.600 314.400 C 166.759 313.899,167.205 313.600,167.794 313.600 C 169.140 313.600,170.000 313.199,170.000 312.571 C 170.000 311.892,171.251 311.200,172.477 311.200 C 172.989 311.200,173.632 310.840,173.907 310.400 C 174.224 309.893,174.840 309.600,175.589 309.600 C 176.362 309.600,176.920 309.323,177.200 308.800 C 177.540 308.165,178.038 308.000,179.611 308.000 C 181.160 308.000,181.702 307.825,182.093 307.200 C 182.522 306.512,183.026 306.400,185.674 306.400 C 188.416 306.400,188.824 306.301,189.384 305.500 C 189.978 304.652,190.334 304.593,195.607 304.470 L 201.200 304.340 201.200 152.813 C 201.200 15.009,201.143 1.264,200.567 1.043 C 198.906 0.405,2.070 0.787,1.429 1.429 M195.200 324.770 C 195.200 324.991,195.560 325.365,196.000 325.600 C 197.050 326.162,197.013 326.946,195.900 327.763 L 195.000 328.423 195.923 327.985 C 197.335 327.315,197.445 326.449,196.257 325.347 C 195.676 324.809,195.200 324.549,195.200 324.770 M227.503 336.375 C 227.123 336.917,226.364 337.196,224.980 337.303 L 223.000 337.456 225.086 337.528 C 226.806 337.587,227.247 337.460,227.600 336.800 C 227.976 336.098,228.438 336.000,231.387 336.000 C 234.395 336.000,234.773 336.084,235.000 336.800 C 235.140 337.240,235.426 337.600,235.636 337.600 C 235.846 337.600,235.724 337.150,235.363 336.600 C 234.469 335.235,228.422 335.062,227.503 336.375 M221.900 338.157 C 221.128 338.743,220.990 339.200,221.586 339.200 C 221.798 339.200,222.165 338.840,222.400 338.400 C 222.899 337.468,222.843 337.441,221.900 338.157 M236.577 338.151 C 236.707 338.564,236.596 339.194,236.329 339.551 C 235.894 340.133,235.919 340.132,236.565 339.542 C 237.153 339.006,237.199 338.747,236.813 338.142 C 236.354 337.423,236.347 337.423,236.577 338.151 M233.184 344.400 L 233.000 346.600 231.137 346.600 C 230.113 346.600,229.358 346.735,229.461 346.900 C 229.790 347.430,232.686 347.220,233.174 346.631 C 233.444 346.306,233.587 345.233,233.508 344.131 L 233.369 342.200 233.184 344.400 M221.473 343.934 C 222.169 344.630,222.841 345.200,222.965 345.200 C 223.367 345.200,221.827 343.554,221.004 343.104 C 220.546 342.854,220.745 343.207,221.473 343.934 M147.800 347.838 C 149.585 348.126,155.096 348.182,154.664 347.907 C 154.409 347.745,152.580 347.634,150.600 347.661 C 148.620 347.687,147.360 347.767,147.800 347.838 M156.797 353.682 C 156.688 355.597,156.743 357.020,156.918 356.844 C 157.093 356.668,157.181 355.101,157.115 353.362 L 156.993 350.200 156.797 353.682 M147.700 357.487 C 148.305 357.578,148.987 358.001,149.214 358.427 C 149.528 359.012,150.058 359.200,151.400 359.200 C 152.742 359.200,153.272 359.012,153.586 358.427 C 153.813 358.001,154.495 357.578,155.100 357.487 C 156.145 357.328,156.137 357.317,154.927 357.260 C 153.974 357.215,153.590 357.401,153.400 358.000 C 153.199 358.632,152.795 358.800,151.469 358.800 C 150.226 358.800,149.663 358.593,149.293 358.000 C 148.970 357.483,148.406 357.221,147.697 357.260 L 146.600 357.320 147.700 357.487 M218.400 363.466 C 222.694 363.757,227.911 363.776,227.739 363.500 C 227.637 363.335,225.088 363.232,222.076 363.272 C 219.064 363.312,217.410 363.399,218.400 363.466 M228.074 366.420 C 228.033 367.641,227.821 368.857,227.601 369.121 C 227.382 369.386,227.483 369.360,227.825 369.064 C 228.284 368.666,228.407 367.961,228.297 366.363 L 228.148 364.200 228.074 366.420 M156.511 367.300 C 155.757 368.275,155.542 368.986,156.265 368.114 C 156.890 367.361,157.478 367.209,160.200 367.095 L 163.400 366.961 160.149 366.880 C 157.937 366.826,156.774 366.960,156.511 367.300 M163.746 367.733 C 163.886 368.136,164.000 368.541,164.000 368.633 C 164.000 368.725,164.495 368.779,165.100 368.754 C 165.923 368.719,165.998 368.660,165.400 368.520 C 164.960 368.417,164.351 368.033,164.046 367.666 C 163.536 367.053,163.513 367.058,163.746 367.733 M167.000 370.000 C 167.000 370.618,167.135 371.040,167.300 370.938 C 167.465 370.836,167.600 370.414,167.600 370.000 C 167.600 369.586,167.465 369.164,167.300 369.062 C 167.135 368.960,167.000 369.382,167.000 370.000 M164.000 373.171 C 164.000 373.376,163.717 373.826,163.371 374.171 C 163.026 374.517,162.915 374.800,163.125 374.800 C 163.336 374.800,163.803 374.350,164.163 373.800 C 164.524 373.250,164.634 372.800,164.409 372.800 C 164.184 372.800,164.000 372.967,164.000 373.171 M154.501 374.000 C 154.590 374.330,155.099 374.633,155.631 374.674 C 156.395 374.732,156.431 374.701,155.800 374.528 C 155.360 374.407,154.851 374.103,154.670 373.854 C 154.451 373.554,154.394 373.604,154.501 374.000 M191.280 382.880 C 190.752 383.408,190.618 386.240,191.107 386.543 C 191.276 386.647,191.347 386.024,191.265 385.159 C 191.181 384.280,191.332 383.323,191.606 382.992 C 192.195 382.283,191.959 382.201,191.280 382.880 " stroke="none" fill="#bc8ceb" fill-rule="evenodd"></path><path id="path1" d="M0.000 355.200 L 0.000 710.400 200.000 710.400 L 400.000 710.400 400.000 355.200 L 400.000 0.000 200.000 0.000 L 0.000 0.000 0.000 355.200 M200.567 1.043 C 201.143 1.264,201.200 15.009,201.200 152.813 L 201.200 304.340 195.607 304.470 C 190.334 304.593,189.978 304.652,189.384 305.500 C 188.824 306.301,188.416 306.400,185.674 306.400 C 183.026 306.400,182.522 306.512,182.093 307.200 C 181.702 307.825,181.160 308.000,179.611 308.000 C 178.038 308.000,177.540 308.165,177.200 308.800 C 176.920 309.323,176.362 309.600,175.589 309.600 C 174.840 309.600,174.224 309.893,173.907 310.400 C 173.632 310.840,172.989 311.200,172.477 311.200 C 171.251 311.200,170.000 311.892,170.000 312.571 C 170.000 313.199,169.140 313.600,167.794 313.600 C 167.205 313.600,166.759 313.899,166.600 314.400 C 166.460 314.840,166.100 315.200,165.800 315.200 C 165.500 315.200,165.146 315.541,165.014 315.957 C 164.882 316.373,164.419 316.806,163.987 316.919 C 163.554 317.033,163.200 317.400,163.200 317.736 C 163.200 318.071,162.840 318.460,162.400 318.600 C 161.960 318.740,161.600 319.100,161.600 319.400 C 161.600 319.700,161.240 320.060,160.800 320.200 C 160.360 320.340,160.000 320.700,160.000 321.000 C 160.000 321.300,159.649 321.657,159.220 321.794 C 158.792 321.930,158.330 322.392,158.194 322.820 C 158.057 323.249,157.742 323.600,157.492 323.600 C 156.871 323.600,154.400 326.039,154.400 326.652 C 154.400 326.924,154.040 327.260,153.600 327.400 C 153.160 327.540,152.800 327.900,152.800 328.200 C 152.800 328.500,152.440 328.860,152.000 329.000 C 151.499 329.159,151.200 329.605,151.200 330.194 C 151.200 331.521,150.802 332.400,150.200 332.400 C 149.609 332.400,149.200 333.275,149.200 334.536 C 149.200 335.016,148.840 335.632,148.400 335.907 C 147.747 336.315,147.600 336.840,147.600 338.757 C 147.600 340.770,147.485 341.137,146.800 341.316 C 146.126 341.492,146.000 341.862,146.000 343.666 C 146.000 345.374,145.838 345.909,145.200 346.307 C 143.954 347.085,143.954 365.405,145.200 365.800 C 145.881 366.016,146.000 366.405,146.000 368.413 C 146.000 370.362,146.139 370.846,146.800 371.200 C 147.453 371.549,147.600 372.038,147.600 373.852 C 147.600 375.738,147.721 376.107,148.400 376.284 C 148.967 376.432,149.200 376.830,149.200 377.649 C 149.200 378.384,149.565 379.122,150.200 379.675 C 150.783 380.182,151.200 380.974,151.200 381.576 C 151.200 382.174,151.536 382.817,152.000 383.107 C 152.440 383.382,152.800 383.760,152.800 383.946 C 152.800 384.308,156.771 388.400,157.122 388.400 C 157.237 388.400,159.705 390.830,162.607 393.800 C 165.888 397.157,168.185 399.200,168.680 399.200 C 169.118 399.200,169.802 399.560,170.200 400.000 C 170.643 400.490,171.432 400.800,172.235 400.800 C 173.195 400.800,173.614 401.014,173.800 401.600 C 173.988 402.193,174.405 402.400,175.413 402.400 C 176.362 402.400,176.901 402.641,177.200 403.200 C 177.533 403.822,178.038 404.000,179.468 404.000 C 180.917 404.000,181.505 404.213,182.235 405.000 C 183.061 405.891,183.481 406.000,186.085 406.000 C 188.574 406.000,189.082 406.119,189.507 406.800 C 189.968 407.538,190.440 407.600,195.603 407.600 L 201.200 407.600 201.200 558.357 C 201.200 695.459,201.143 709.136,200.567 709.357 C 198.577 710.121,1.626 709.596,1.214 708.826 C 0.442 707.383,0.656 2.202,1.429 1.429 C 2.070 0.787,198.906 0.405,200.567 1.043 M208.221 306.098 C 209.030 306.878,209.499 306.979,211.749 306.863 C 214.125 306.741,214.420 306.817,215.244 307.765 C 216.002 308.636,216.482 308.800,218.272 308.800 C 219.481 308.800,220.400 308.980,220.400 309.217 C 220.400 310.050,221.366 310.637,222.470 310.475 C 223.283 310.356,223.600 310.478,223.600 310.912 C 223.600 311.677,224.670 312.141,226.157 312.021 C 227.047 311.949,227.260 312.067,227.080 312.535 C 226.774 313.332,227.860 314.200,229.163 314.200 C 230.603 314.200,238.630 322.392,238.251 323.476 C 238.028 324.114,238.070 324.107,238.602 323.420 C 239.167 322.690,242.371 324.879,243.130 326.513 C 243.210 326.686,244.069 327.570,245.038 328.478 C 246.151 329.522,246.800 330.476,246.800 331.069 C 246.800 331.585,247.160 332.316,247.600 332.693 C 248.043 333.072,248.400 333.873,248.400 334.486 C 248.400 335.160,248.713 335.789,249.200 336.093 C 249.836 336.490,250.000 337.026,250.000 338.700 C 250.000 340.313,250.188 340.969,250.800 341.493 C 251.366 341.978,251.600 342.673,251.600 343.873 C 251.600 345.107,251.841 345.793,252.484 346.392 C 253.808 347.626,253.639 364.125,252.290 365.295 C 251.611 365.884,251.473 366.413,251.553 368.129 C 251.638 369.976,251.536 370.299,250.725 370.732 C 249.897 371.175,249.815 371.462,249.940 373.462 C 250.027 374.862,249.932 375.605,249.685 375.453 C 249.041 375.054,248.210 376.412,248.340 377.650 C 248.422 378.434,248.279 378.800,247.892 378.800 C 247.017 378.800,245.931 380.171,246.419 380.659 C 246.878 381.118,246.494 382.505,245.993 382.195 C 245.815 382.085,245.443 382.507,245.166 383.132 C 244.889 383.758,244.288 384.440,243.831 384.649 C 243.374 384.858,243.045 385.248,243.100 385.515 C 243.155 385.782,242.932 386.000,242.603 386.000 C 241.821 386.000,230.520 397.359,230.716 397.948 C 230.812 398.236,230.261 398.400,229.196 398.400 C 227.845 398.400,227.484 398.558,227.309 399.225 C 227.147 399.846,226.823 400.021,225.997 399.934 C 224.837 399.812,223.458 400.646,223.828 401.245 C 223.949 401.440,223.411 401.600,222.633 401.600 C 221.550 401.600,221.058 401.844,220.535 402.644 C 219.917 403.587,219.662 403.669,217.898 403.500 C 216.178 403.335,215.871 403.425,215.326 404.256 C 214.663 405.269,209.957 405.700,209.400 404.800 C 209.264 404.580,208.973 404.400,208.753 404.400 C 208.533 404.400,208.460 404.573,208.590 404.784 C 208.720 404.995,208.598 405.535,208.317 405.984 C 207.653 407.047,189.725 407.293,190.132 406.233 C 190.458 405.382,189.338 405.108,185.847 405.185 C 183.159 405.243,182.729 405.163,182.929 404.640 C 183.273 403.744,182.519 403.449,180.166 403.558 C 179.012 403.611,177.963 403.463,177.817 403.227 C 177.672 402.992,177.779 402.800,178.056 402.800 C 178.452 402.800,178.456 402.696,178.073 402.313 C 177.805 402.045,176.914 401.820,176.093 401.813 C 175.205 401.805,174.634 401.617,174.684 401.348 C 174.730 401.099,174.415 400.576,173.984 400.186 C 173.534 399.778,173.200 399.673,173.200 399.938 C 173.200 400.886,171.194 400.437,170.800 399.400 C 170.495 398.599,170.144 398.400,169.034 398.400 C 168.271 398.400,167.536 398.220,167.400 398.000 C 167.264 397.780,167.375 397.600,167.646 397.600 C 167.918 397.600,167.715 397.149,167.196 396.596 C 166.495 395.849,166.170 395.721,165.932 396.096 C 165.714 396.440,165.610 396.329,165.606 395.749 C 165.599 394.768,164.699 393.866,164.163 394.303 C 163.963 394.467,163.935 394.435,164.101 394.232 C 164.494 393.752,163.216 392.343,162.685 392.671 C 162.460 392.810,162.386 392.747,162.519 392.531 C 162.801 392.075,158.314 387.495,157.766 387.678 C 157.565 387.745,157.340 387.620,157.266 387.400 C 157.011 386.637,156.308 386.010,155.954 386.228 C 155.758 386.349,155.423 385.986,155.208 385.421 C 154.993 384.856,154.589 384.440,154.309 384.497 C 154.029 384.554,153.797 384.309,153.794 383.954 C 153.785 383.007,152.829 382.014,152.171 382.267 C 151.766 382.422,151.600 382.182,151.600 381.443 C 151.600 380.869,151.808 380.400,152.062 380.400 C 152.324 380.400,152.211 380.054,151.800 379.600 C 151.402 379.160,150.834 378.800,150.538 378.800 C 150.227 378.800,150.000 378.367,150.000 377.776 C 150.000 377.071,150.155 376.842,150.500 377.041 C 150.775 377.199,150.569 376.856,150.042 376.277 C 149.515 375.698,148.916 375.328,148.711 375.455 C 148.493 375.590,148.382 374.738,148.444 373.401 C 148.527 371.599,148.407 371.036,147.875 370.738 C 147.504 370.530,147.197 370.504,147.194 370.680 C 147.191 370.856,147.013 370.730,146.800 370.400 C 146.299 369.625,146.292 367.749,146.787 366.824 C 147.179 366.091,145.855 364.338,145.258 364.800 C 145.116 364.910,144.952 360.995,144.892 356.100 C 144.822 350.252,144.924 347.200,145.192 347.200 C 145.417 347.200,145.600 347.470,145.600 347.800 C 145.600 348.461,146.223 348.610,146.579 348.034 C 146.703 347.833,146.579 347.589,146.302 347.493 C 145.935 347.364,145.996 347.096,146.526 346.498 C 146.999 345.965,147.103 345.587,146.826 345.416 C 146.359 345.128,146.260 343.630,146.642 342.635 C 146.775 342.288,147.025 342.092,147.197 342.198 C 147.948 342.663,148.533 341.049,148.440 338.767 C 148.386 337.454,148.491 336.414,148.671 336.454 C 149.678 336.678,150.331 335.883,150.137 334.669 C 149.970 333.625,150.097 333.329,150.852 333.000 C 151.509 332.713,151.773 332.260,151.785 331.400 C 151.793 330.740,151.980 330.140,152.200 330.066 C 152.420 329.992,152.817 329.752,153.082 329.532 C 153.348 329.311,153.753 329.247,153.982 329.389 C 154.212 329.531,154.400 329.457,154.400 329.224 C 154.400 328.991,154.220 328.800,154.000 328.800 C 152.979 328.800,154.083 327.504,160.683 320.957 C 167.387 314.307,167.837 313.940,169.108 314.089 C 170.311 314.229,170.474 314.128,170.675 313.123 C 170.898 312.012,173.200 311.349,173.200 312.396 C 173.200 312.614,173.544 312.497,173.965 312.137 C 174.386 311.777,174.637 311.240,174.523 310.945 C 174.240 310.205,175.546 309.774,176.419 310.319 C 177.222 310.820,178.119 310.114,177.914 309.142 C 177.830 308.741,178.381 308.589,180.036 308.556 C 181.888 308.519,184.892 307.651,183.300 307.612 C 183.025 307.605,182.800 307.405,182.800 307.166 C 182.800 306.879,183.946 306.772,186.184 306.849 C 189.402 306.960,190.136 306.801,190.250 305.967 C 190.278 305.765,190.322 305.510,190.350 305.400 C 190.551 304.595,207.340 305.251,208.221 306.098 M145.600 357.387 C 145.600 357.744,145.835 357.885,146.198 357.746 C 146.526 357.619,146.696 357.355,146.574 357.158 C 146.225 356.593,145.600 356.740,145.600 357.387 " stroke="none" fill="#7c24dc" fill-rule="evenodd"></path><path id="path2" d="M190.200 305.600 C 190.038 305.862,193.070 306.000,199.000 306.000 C 204.930 306.000,207.962 305.862,207.800 305.600 C 207.648 305.354,204.270 305.200,199.000 305.200 C 193.730 305.200,190.352 305.354,190.200 305.600 M182.800 307.200 C 182.800 307.431,184.067 307.600,185.800 307.600 C 187.533 307.600,188.800 307.431,188.800 307.200 C 188.800 306.969,187.533 306.800,185.800 306.800 C 184.067 306.800,182.800 306.969,182.800 307.200 M209.800 307.200 C 209.644 307.453,210.628 307.598,212.476 307.594 C 214.512 307.590,215.218 307.470,214.800 307.200 C 214.008 306.688,210.116 306.688,209.800 307.200 M177.798 308.803 C 177.661 309.024,177.812 309.306,178.133 309.429 C 179.104 309.802,181.727 309.434,181.902 308.900 C 182.106 308.281,178.178 308.188,177.798 308.803 M216.600 309.200 C 216.736 309.420,217.647 309.600,218.624 309.600 C 219.601 309.600,220.400 309.420,220.400 309.200 C 220.400 308.980,219.489 308.800,218.376 308.800 C 217.129 308.800,216.448 308.953,216.600 309.200 M174.684 310.250 C 174.089 310.844,174.445 311.200,175.633 311.200 C 176.441 311.200,176.810 311.027,176.702 310.700 C 176.515 310.133,175.113 309.820,174.684 310.250 M221.600 310.800 C 221.600 311.020,222.050 311.200,222.600 311.200 C 223.150 311.200,223.600 311.020,223.600 310.800 C 223.600 310.580,223.150 310.400,222.600 310.400 C 222.050 310.400,221.600 310.580,221.600 310.800 M170.800 312.627 C 170.800 313.071,171.111 313.216,171.869 313.127 C 173.426 312.942,173.564 312.000,172.033 312.000 C 171.180 312.000,170.800 312.193,170.800 312.627 M225.300 312.500 C 225.392 312.775,225.797 313.000,226.200 313.000 C 226.603 313.000,227.008 312.775,227.100 312.500 C 227.206 312.183,226.876 312.000,226.200 312.000 C 225.524 312.000,225.194 312.183,225.300 312.500 M160.500 321.040 C 153.328 328.254,153.082 328.571,154.400 328.916 C 155.067 329.090,155.200 329.462,155.200 331.147 C 155.200 332.664,155.403 333.358,156.012 333.925 C 156.543 334.420,156.911 335.429,157.076 336.841 C 157.243 338.269,157.577 339.177,158.064 339.523 C 158.662 339.947,158.800 340.585,158.800 342.926 C 158.800 345.374,158.920 345.883,159.600 346.307 C 160.063 346.596,160.400 347.240,160.400 347.834 C 160.400 348.876,162.479 351.388,162.951 350.915 C 163.468 350.398,163.169 349.224,162.380 348.671 C 161.115 347.785,161.376 343.060,162.700 342.872 C 163.195 342.802,163.600 342.938,163.600 343.175 C 163.600 343.412,164.050 343.997,164.600 344.475 C 165.219 345.013,165.600 345.769,165.600 346.458 C 165.600 347.162,165.894 347.729,166.400 348.000 C 166.906 348.271,167.200 348.838,167.200 349.542 C 167.200 350.231,167.581 350.987,168.200 351.525 C 168.852 352.092,169.200 352.813,169.200 353.597 C 169.200 354.676,169.328 354.800,170.440 354.800 C 171.390 354.800,172.076 355.220,173.380 356.600 C 174.637 357.931,175.383 358.400,176.244 358.400 C 176.974 358.400,177.594 358.698,177.907 359.200 C 178.224 359.707,178.840 360.000,179.589 360.000 C 180.362 360.000,180.920 360.277,181.200 360.800 C 181.470 361.304,182.038 361.600,182.734 361.600 C 184.515 361.600,184.800 362.230,184.803 366.180 L 184.806 369.800 186.603 371.387 C 187.908 372.540,188.400 373.274,188.400 374.069 C 188.400 375.492,189.953 377.027,191.729 377.360 C 192.496 377.504,193.224 377.887,193.349 378.211 C 193.730 379.204,194.400 378.865,194.400 377.680 C 194.400 375.873,195.017 375.600,199.093 375.600 C 203.756 375.600,205.600 376.891,205.600 380.154 C 205.600 382.868,205.359 383.200,203.390 383.200 C 200.463 383.200,199.126 384.890,201.183 385.991 C 201.621 386.225,202.082 387.028,202.229 387.816 C 202.374 388.589,202.832 389.403,203.247 389.625 C 203.745 389.892,204.000 390.464,204.000 391.318 C 204.000 392.174,204.269 392.775,204.800 393.107 C 205.272 393.402,205.600 394.040,205.600 394.663 C 205.600 395.397,206.150 396.240,207.400 397.420 C 209.411 399.320,209.558 399.770,208.400 400.493 C 206.018 401.981,208.661 405.200,212.265 405.200 C 215.439 405.200,216.000 404.482,212.952 404.320 C 209.129 404.118,209.201 403.484,213.538 399.197 L 217.237 395.540 216.969 392.238 C 216.707 389.008,216.724 388.918,217.751 388.110 C 218.660 387.395,218.800 386.986,218.800 385.042 C 218.800 383.809,218.978 382.800,219.195 382.800 C 219.827 382.800,225.600 376.793,225.600 376.135 C 225.600 374.301,223.199 373.005,219.531 372.860 C 215.846 372.714,214.252 371.933,213.488 369.900 C 213.343 369.515,212.949 369.200,212.613 369.200 C 211.594 369.200,211.765 365.728,212.800 365.400 C 213.240 365.260,213.600 364.895,213.600 364.587 C 213.600 364.280,213.984 363.822,214.454 363.571 C 215.428 363.050,214.847 362.417,213.384 362.406 C 212.934 362.403,211.905 361.680,211.096 360.800 C 210.121 359.740,209.282 359.200,208.610 359.200 C 208.026 359.200,207.226 358.776,206.725 358.200 C 205.821 357.159,197.200 356.591,197.200 357.571 C 197.200 358.681,195.924 359.113,192.561 359.141 C 187.818 359.180,187.600 359.025,187.600 355.610 C 187.600 352.194,187.217 351.920,185.322 353.980 C 183.435 356.033,183.776 356.129,180.129 352.517 L 177.016 349.434 177.044 343.925 L 177.071 338.416 178.564 337.008 C 179.415 336.205,180.469 335.600,181.014 335.600 C 181.562 335.600,182.155 335.258,182.400 334.800 C 182.717 334.208,183.238 334.000,184.400 334.000 C 185.562 334.000,186.083 334.208,186.400 334.800 C 186.730 335.417,187.238 335.600,188.614 335.600 C 190.766 335.600,190.819 335.320,189.004 333.556 C 187.398 331.996,187.286 331.465,188.397 330.687 C 189.322 330.039,189.060 329.600,187.747 329.600 C 187.238 329.600,186.637 329.956,186.400 330.400 C 185.853 331.422,184.529 331.435,184.207 330.423 C 184.033 329.873,183.528 329.610,182.484 329.523 C 180.278 329.339,180.392 328.398,182.931 325.818 C 184.456 324.268,185.423 323.600,186.143 323.600 C 186.762 323.600,187.342 323.282,187.600 322.800 C 188.123 321.824,189.140 321.765,189.804 322.673 C 190.579 323.734,192.748 321.868,192.778 320.114 C 192.793 319.240,193.064 318.687,193.624 318.387 C 194.204 318.077,194.411 317.629,194.324 316.873 L 194.200 315.800 186.660 315.691 C 179.533 315.588,179.109 315.539,178.914 314.791 C 178.605 313.611,174.575 313.619,174.200 314.800 C 174.003 315.421,173.595 315.600,172.376 315.600 C 171.240 315.600,170.669 315.379,170.307 314.800 C 169.094 312.858,167.845 313.653,160.500 321.040 M228.800 314.400 C 228.800 314.620,229.261 314.800,229.824 314.800 C 230.404 314.800,230.740 314.627,230.600 314.400 C 230.464 314.180,230.003 314.000,229.576 314.000 C 229.149 314.000,228.800 314.180,228.800 314.400 M238.768 323.100 C 238.750 323.265,238.699 323.896,238.654 324.502 C 238.609 325.118,238.183 325.877,237.687 326.224 C 236.416 327.114,236.475 329.323,237.800 330.475 C 238.756 331.306,238.800 331.542,238.800 335.859 L 238.800 340.373 242.200 343.766 C 244.950 346.509,245.600 347.386,245.600 348.352 C 245.600 349.176,245.837 349.621,246.363 349.788 C 246.783 349.921,247.238 350.322,247.375 350.678 C 247.592 351.244,247.725 351.217,248.427 350.463 C 249.320 349.505,251.528 349.288,252.320 350.080 C 252.652 350.412,252.823 352.788,252.875 357.780 L 252.951 365.000 253.193 356.200 C 253.434 347.407,253.434 347.399,252.517 346.484 C 251.849 345.817,251.600 345.107,251.600 343.873 C 251.600 342.673,251.366 341.978,250.800 341.493 C 250.188 340.969,250.000 340.313,250.000 338.700 C 250.000 337.026,249.836 336.490,249.200 336.093 C 248.713 335.789,248.400 335.160,248.400 334.486 C 248.400 333.873,248.043 333.072,247.600 332.693 C 247.160 332.316,246.800 331.585,246.800 331.069 C 246.800 330.490,246.148 329.496,245.100 328.477 C 244.165 327.568,242.500 325.920,241.400 324.816 C 239.471 322.878,238.836 322.465,238.768 323.100 M151.867 329.867 C 151.448 330.285,151.555 332.000,152.000 332.000 C 152.220 332.000,152.400 331.460,152.400 330.800 C 152.400 329.557,152.319 329.415,151.867 329.867 M150.000 334.200 C 150.000 334.750,150.180 335.200,150.400 335.200 C 150.620 335.200,150.800 334.750,150.800 334.200 C 150.800 333.650,150.620 333.200,150.400 333.200 C 150.180 333.200,150.000 333.650,150.000 334.200 M148.400 338.600 C 148.400 339.996,148.551 340.754,148.800 340.600 C 149.020 340.464,149.200 339.564,149.200 338.600 C 149.200 337.636,149.020 336.736,148.800 336.600 C 148.551 336.446,148.400 337.204,148.400 338.600 M146.643 342.633 C 146.269 343.607,146.355 345.125,146.800 345.400 C 147.044 345.551,147.200 344.937,147.200 343.824 C 147.200 341.908,147.047 341.580,146.643 342.633 M144.800 355.976 C 144.800 360.803,144.956 364.849,145.147 364.967 C 145.576 365.232,146.177 350.117,145.805 348.424 C 145.126 345.331,144.800 347.779,144.800 355.976 M146.643 367.033 C 146.280 367.979,146.361 369.721,146.800 370.400 C 147.075 370.826,147.190 370.333,147.194 368.700 C 147.200 366.336,147.066 365.930,146.643 367.033 M251.320 368.400 C 251.320 369.610,251.395 370.105,251.487 369.500 C 251.578 368.895,251.578 367.905,251.487 367.300 C 251.395 366.695,251.320 367.190,251.320 368.400 M148.400 373.600 C 148.400 374.863,148.553 375.553,148.800 375.400 C 149.020 375.264,149.200 374.454,149.200 373.600 C 149.200 372.746,149.020 371.936,148.800 371.800 C 148.553 371.647,148.400 372.337,148.400 373.600 M249.467 371.867 C 249.048 372.285,249.155 375.125,249.600 375.400 C 249.847 375.552,250.000 374.871,250.000 373.624 C 250.000 371.572,249.944 371.389,249.467 371.867 M150.000 377.776 C 150.000 378.339,150.180 378.800,150.400 378.800 C 150.620 378.800,150.800 378.451,150.800 378.024 C 150.800 377.597,150.620 377.136,150.400 377.000 C 150.173 376.860,150.000 377.196,150.000 377.776 M247.600 377.800 C 247.600 378.350,247.780 378.800,248.000 378.800 C 248.220 378.800,248.400 378.350,248.400 377.800 C 248.400 377.250,248.220 376.800,248.000 376.800 C 247.780 376.800,247.600 377.250,247.600 377.800 M151.600 381.400 C 151.600 381.950,151.780 382.400,152.000 382.400 C 152.220 382.400,152.400 381.950,152.400 381.400 C 152.400 380.850,152.220 380.400,152.000 380.400 C 151.780 380.400,151.600 380.850,151.600 381.400 M245.778 380.914 C 245.402 381.894,246.019 382.666,246.497 381.813 C 246.752 381.356,246.738 380.978,246.455 380.695 C 246.150 380.390,245.954 380.454,245.778 380.914 M167.400 398.000 C 167.536 398.220,168.177 398.400,168.824 398.400 C 169.471 398.400,170.000 398.220,170.000 398.000 C 170.000 397.780,169.359 397.600,168.576 397.600 C 167.729 397.600,167.253 397.762,167.400 398.000 M228.400 398.000 C 228.400 398.220,228.940 398.400,229.600 398.400 C 230.260 398.400,230.800 398.220,230.800 398.000 C 230.800 397.780,230.260 397.600,229.600 397.600 C 228.940 397.600,228.400 397.780,228.400 398.000 M170.898 399.700 C 171.152 400.476,173.200 400.589,173.200 399.827 C 173.200 399.393,172.820 399.200,171.967 399.200 C 171.159 399.200,170.790 399.373,170.898 399.700 M225.200 399.600 C 225.200 399.820,225.650 400.000,226.200 400.000 C 226.750 400.000,227.200 399.820,227.200 399.600 C 227.200 399.380,226.750 399.200,226.200 399.200 C 225.650 399.200,225.200 399.380,225.200 399.600 M174.598 401.203 C 174.281 401.717,175.404 402.161,176.225 401.846 C 177.027 401.538,176.585 400.800,175.600 400.800 C 175.186 400.800,174.735 400.981,174.598 401.203 M221.800 401.200 C 221.655 401.434,222.070 401.600,222.800 401.600 C 223.530 401.600,223.945 401.434,223.800 401.200 C 223.664 400.980,223.214 400.800,222.800 400.800 C 222.386 400.800,221.936 400.980,221.800 401.200 M177.800 403.200 C 177.936 403.420,178.937 403.600,180.024 403.600 C 181.111 403.600,182.000 403.420,182.000 403.200 C 182.000 402.980,180.999 402.800,179.776 402.800 C 178.396 402.800,177.647 402.952,177.800 403.200 M216.600 403.200 C 216.736 403.420,217.546 403.600,218.400 403.600 C 219.254 403.600,220.064 403.420,220.200 403.200 C 220.353 402.953,219.663 402.800,218.400 402.800 C 217.137 402.800,216.447 402.953,216.600 403.200 M182.800 404.800 C 182.800 405.031,184.067 405.200,185.800 405.200 C 187.533 405.200,188.800 405.031,188.800 404.800 C 188.800 404.569,187.533 404.400,185.800 404.400 C 184.067 404.400,182.800 404.569,182.800 404.800 M190.000 406.400 C 190.000 406.655,193.267 406.800,199.000 406.800 C 204.733 406.800,208.000 406.655,208.000 406.400 C 208.000 406.145,204.733 406.000,199.000 406.000 C 193.267 406.000,190.000 406.145,190.000 406.400 " stroke="none" fill="#83c52d" fill-rule="evenodd"></path><path id="path3" d="M189.656 306.813 C 188.936 307.413,188.110 307.600,186.186 307.600 C 184.077 307.600,183.466 307.764,182.473 308.600 C 181.644 309.297,180.806 309.600,179.704 309.600 C 178.632 309.600,177.891 309.857,177.400 310.400 C 177.002 310.840,176.299 311.200,175.838 311.200 C 175.377 311.201,174.477 311.651,173.838 312.200 C 173.199 312.750,172.260 313.200,171.752 313.200 C 170.843 313.200,169.787 314.454,170.281 314.947 C 170.930 315.596,173.550 315.189,173.800 314.400 C 174.172 313.228,178.489 313.221,179.308 314.391 C 179.821 315.122,180.413 315.190,187.231 315.291 L 194.600 315.400 194.727 316.944 C 194.825 318.141,194.668 318.617,194.027 319.066 C 192.895 319.859,192.979 321.117,194.200 321.673 C 194.926 322.003,195.200 322.441,195.200 323.267 C 195.200 323.983,195.571 324.728,196.200 325.275 C 198.093 326.921,195.797 329.600,192.492 329.600 C 190.921 329.600,190.300 329.818,189.283 330.726 L 188.021 331.852 189.638 333.339 C 191.661 335.199,191.597 336.151,189.435 336.328 C 187.398 336.495,186.000 336.125,186.000 335.419 C 186.000 335.108,185.640 334.740,185.200 334.600 C 184.155 334.268,182.800 334.711,182.800 335.384 C 182.800 335.977,181.941 336.400,180.737 336.400 C 180.298 336.400,179.441 336.897,178.833 337.505 L 177.728 338.610 177.843 343.974 L 177.957 349.338 179.995 351.469 C 181.116 352.641,182.206 353.600,182.417 353.600 C 182.627 353.600,182.800 353.870,182.800 354.200 C 182.800 355.233,183.666 354.862,185.245 353.151 C 187.399 350.819,187.936 351.184,188.083 355.081 L 188.200 358.200 190.600 358.480 C 191.920 358.634,193.646 358.875,194.435 359.016 C 195.874 359.273,196.886 358.740,197.298 357.507 C 197.662 356.418,205.571 356.977,206.678 358.171 C 207.205 358.739,208.073 359.200,208.617 359.200 C 209.252 359.200,210.151 359.783,211.149 360.843 C 212.491 362.268,212.855 362.452,213.885 362.225 C 214.717 362.042,215.226 362.149,215.585 362.582 C 216.004 363.087,217.150 363.200,221.835 363.200 C 228.382 363.200,228.400 363.209,228.400 366.633 C 228.400 368.758,226.774 370.819,224.682 371.344 L 223.591 371.618 224.995 373.022 C 226.702 374.729,227.058 377.737,225.609 378.197 C 223.722 378.796,219.645 383.618,219.386 385.555 C 219.039 388.162,218.958 388.322,217.924 388.469 C 216.917 388.612,216.685 391.159,217.381 394.444 C 217.679 395.851,217.602 395.975,214.443 399.180 C 210.425 403.259,210.140 404.400,213.138 404.400 C 214.568 404.400,215.266 404.190,215.800 403.600 C 216.327 403.018,217.032 402.800,218.392 402.800 C 219.868 402.800,220.458 402.590,221.200 401.800 C 221.717 401.250,222.530 400.800,223.008 400.800 C 223.485 400.800,224.202 400.440,224.600 400.000 C 224.998 399.560,225.712 399.200,226.187 399.200 C 226.661 399.200,227.436 398.840,227.908 398.400 C 228.380 397.960,229.135 397.600,229.584 397.600 C 230.731 397.600,245.600 382.840,245.600 381.702 C 245.600 381.240,246.050 380.327,246.600 379.673 C 247.150 379.019,247.600 378.133,247.600 377.704 C 247.600 377.275,247.960 376.598,248.400 376.200 C 248.967 375.687,249.200 374.968,249.200 373.735 C 249.200 372.377,249.420 371.804,250.200 371.125 C 251.022 370.410,251.200 369.893,251.200 368.217 C 251.200 366.673,251.394 366.012,252.000 365.493 C 253.048 364.596,253.248 350.870,252.226 350.022 C 251.263 349.222,249.021 349.654,248.877 350.666 C 248.682 352.030,247.775 352.054,246.392 350.732 C 245.354 349.740,245.160 349.299,245.349 348.357 C 245.544 347.379,245.452 347.200,244.750 347.200 C 243.909 347.200,241.768 345.259,241.001 343.800 C 240.769 343.360,239.912 342.567,239.097 342.038 L 237.614 341.075 237.676 336.524 C 237.735 332.268,237.682 331.933,236.869 331.364 C 235.525 330.422,235.597 326.232,236.976 325.147 C 239.007 323.550,238.807 323.022,234.550 318.750 C 232.023 316.213,230.310 314.800,229.761 314.800 C 229.292 314.800,228.450 314.440,227.891 314.000 C 227.331 313.560,226.658 313.200,226.395 313.200 C 226.131 313.200,225.381 312.750,224.727 312.200 C 224.073 311.650,223.142 311.200,222.658 311.200 C 222.174 311.200,221.470 310.840,221.093 310.400 C 220.603 309.828,219.913 309.600,218.674 309.600 C 217.341 309.600,216.722 309.368,216.000 308.600 C 215.187 307.735,214.715 307.600,212.493 307.600 C 210.532 307.600,209.686 307.411,208.909 306.800 C 207.364 305.584,191.117 305.596,189.656 306.813 M152.885 329.675 C 152.618 329.942,152.400 330.546,152.400 331.018 C 152.400 331.490,152.040 332.202,151.600 332.600 C 151.160 332.998,150.800 333.748,150.800 334.266 C 150.800 334.784,150.440 335.516,150.000 335.893 C 149.411 336.397,149.200 337.073,149.200 338.458 C 149.200 339.880,148.956 340.628,148.200 341.527 C 147.500 342.359,147.200 343.193,147.200 344.309 C 147.200 345.237,146.950 346.110,146.600 346.400 C 145.416 347.382,146.062 347.600,150.160 347.600 L 154.320 347.600 155.760 349.040 C 158.435 351.715,157.802 357.600,154.840 357.600 C 154.394 357.600,153.835 357.960,153.600 358.400 C 152.978 359.562,149.813 359.546,149.188 358.377 C 148.843 357.733,148.428 357.581,147.274 357.677 L 145.800 357.800 145.686 361.225 C 145.585 364.246,145.667 364.737,146.386 365.387 C 146.997 365.940,147.200 366.620,147.200 368.116 C 147.200 369.727,147.391 370.286,148.200 371.035 C 148.974 371.753,149.200 372.358,149.200 373.719 C 149.200 374.968,149.431 375.685,150.000 376.200 C 150.440 376.598,150.800 377.318,150.800 377.800 C 150.800 378.282,151.160 379.002,151.600 379.400 C 152.040 379.798,152.400 380.558,152.400 381.088 C 152.400 382.321,167.757 397.589,169.004 397.596 C 169.446 397.598,170.032 397.960,170.307 398.400 C 170.616 398.895,171.240 399.200,171.941 399.200 C 172.568 399.200,173.400 399.558,173.800 400.000 C 174.198 400.440,174.868 400.800,175.289 400.800 C 175.709 400.800,176.643 401.250,177.364 401.800 C 178.258 402.482,179.185 402.800,180.276 402.800 C 181.368 402.800,182.106 403.054,182.600 403.600 C 183.180 404.241,183.832 404.400,185.878 404.400 C 187.813 404.400,188.697 404.596,189.525 405.208 C 190.556 405.970,191.123 406.010,199.609 405.908 C 208.860 405.797,210.138 405.536,207.600 404.278 C 206.356 403.661,205.984 401.122,206.977 400.026 C 207.557 399.384,207.496 399.216,206.203 397.885 C 205.222 396.874,204.800 396.073,204.800 395.220 C 204.800 394.415,204.601 394.000,204.214 394.000 C 203.497 394.000,202.800 392.778,202.800 391.523 C 202.800 391.011,202.440 390.368,202.000 390.093 C 201.493 389.776,201.200 389.160,201.200 388.411 C 201.200 387.638,200.923 387.080,200.400 386.800 C 199.876 386.520,199.600 385.962,199.600 385.186 C 199.600 383.847,199.404 383.739,198.543 384.600 C 198.173 384.970,197.192 385.200,195.986 385.200 C 194.419 385.200,193.940 385.364,193.587 386.024 C 193.277 386.604,192.829 386.811,192.073 386.724 C 190.182 386.506,190.320 383.959,192.333 381.926 C 194.216 380.024,193.781 378.008,191.487 378.003 C 190.280 378.000,187.600 375.685,187.600 374.645 C 187.600 374.325,186.797 373.260,185.816 372.279 L 184.031 370.494 183.916 366.747 L 183.800 363.000 182.466 362.569 C 181.733 362.332,181.007 361.935,180.854 361.688 C 180.701 361.440,179.828 361.118,178.913 360.972 C 177.998 360.825,177.151 360.449,177.030 360.135 C 176.910 359.821,176.179 359.300,175.406 358.977 C 174.633 358.654,174.000 358.202,174.000 357.973 C 174.000 356.526,171.797 354.823,170.246 355.071 L 168.676 355.322 168.911 353.870 C 169.120 352.581,169.026 352.360,168.073 351.898 C 167.155 351.454,167.018 351.168,167.128 349.921 C 167.239 348.655,167.133 348.446,166.328 348.331 C 165.535 348.219,165.400 347.969,165.400 346.610 C 165.400 345.338,165.240 344.989,164.600 344.865 C 164.160 344.780,163.656 344.461,163.480 344.155 C 163.304 343.850,162.899 343.600,162.580 343.600 C 161.602 343.600,161.791 347.462,162.800 348.093 C 163.736 348.677,163.939 351.384,163.073 351.717 C 162.283 352.020,160.000 349.486,160.000 348.306 C 160.000 347.710,159.639 347.058,159.117 346.711 C 158.371 346.216,158.207 345.669,158.069 343.212 C 157.931 340.772,157.782 340.268,157.148 340.102 C 156.229 339.862,155.825 338.456,156.162 336.664 C 156.377 335.517,156.275 335.272,155.425 334.884 C 154.554 334.487,154.425 334.146,154.320 331.949 C 154.199 329.446,153.779 328.781,152.885 329.675 M235.846 337.078 C 237.513 338.898,237.550 338.602,235.400 340.662 C 233.754 342.239,233.600 342.552,233.600 344.313 C 233.600 347.323,230.588 348.568,229.037 346.200 C 228.440 345.290,228.128 345.200,225.560 345.200 C 222.401 345.200,220.400 343.916,220.400 341.889 C 220.400 341.354,219.950 340.431,219.400 339.838 C 218.218 338.563,218.230 338.627,219.029 337.829 C 219.817 337.040,220.182 337.039,220.968 337.825 C 221.535 338.392,221.676 338.392,222.486 337.825 C 222.976 337.481,224.195 337.200,225.193 337.200 C 226.574 337.200,227.127 337.009,227.507 336.400 C 228.516 334.784,234.165 335.243,235.846 337.078 M163.837 367.500 C 164.219 367.885,165.176 368.385,165.963 368.612 C 168.052 369.213,167.936 370.047,165.414 372.568 L 163.183 374.800 158.954 374.800 C 155.085 374.800,154.708 374.733,154.519 374.013 C 154.406 373.581,153.973 373.118,153.557 372.986 C 152.272 372.579,152.710 371.285,154.900 369.012 L 157.000 366.832 160.071 366.816 C 162.480 366.803,163.293 366.951,163.837 367.500 " stroke="none" fill="#067bf6" fill-rule="evenodd"></path><path id="path4" d="M173.807 314.377 C 173.636 314.917,173.110 315.201,172.080 315.310 L 170.600 315.466 172.273 315.533 C 173.628 315.587,173.994 315.448,174.200 314.800 C 174.575 313.619,178.605 313.611,178.914 314.791 C 179.109 315.539,179.533 315.588,186.660 315.691 L 194.200 315.800 194.324 316.873 C 194.411 317.629,194.204 318.077,193.624 318.387 C 193.064 318.687,192.793 319.240,192.778 320.114 C 192.748 321.868,190.579 323.734,189.804 322.673 C 189.140 321.765,188.123 321.824,187.600 322.800 C 187.342 323.282,186.762 323.600,186.143 323.600 C 185.423 323.600,184.456 324.268,182.931 325.818 C 180.392 328.398,180.278 329.339,182.484 329.523 C 183.528 329.610,184.033 329.873,184.207 330.423 C 184.529 331.435,185.853 331.422,186.400 330.400 C 186.637 329.956,187.238 329.600,187.747 329.600 C 189.060 329.600,189.322 330.039,188.397 330.687 C 187.286 331.465,187.398 331.996,189.004 333.556 C 190.819 335.320,190.766 335.600,188.614 335.600 C 187.238 335.600,186.730 335.417,186.400 334.800 C 186.083 334.208,185.562 334.000,184.400 334.000 C 183.238 334.000,182.717 334.208,182.400 334.800 C 182.155 335.258,181.562 335.600,181.014 335.600 C 180.469 335.600,179.415 336.205,178.564 337.008 L 177.071 338.416 177.044 343.925 L 177.016 349.434 180.129 352.517 C 183.776 356.129,183.435 356.033,185.322 353.980 C 187.217 351.920,187.600 352.194,187.600 355.610 C 187.600 358.811,187.966 359.200,190.974 359.200 C 193.618 359.200,193.221 358.462,190.500 358.320 L 188.200 358.200 188.083 355.081 C 187.936 351.184,187.399 350.819,185.245 353.151 C 183.666 354.862,182.800 355.233,182.800 354.200 C 182.800 353.870,182.627 353.600,182.417 353.600 C 182.206 353.600,181.116 352.641,179.995 351.469 L 177.957 349.338 177.843 343.974 L 177.728 338.610 178.833 337.505 C 179.441 336.897,180.298 336.400,180.737 336.400 C 181.941 336.400,182.800 335.977,182.800 335.384 C 182.800 334.711,184.155 334.268,185.200 334.600 C 185.640 334.740,186.000 335.108,186.000 335.419 C 186.000 336.125,187.398 336.495,189.435 336.328 C 191.597 336.151,191.661 335.199,189.638 333.339 L 188.021 331.852 189.283 330.726 C 190.267 329.847,190.937 329.600,192.332 329.600 C 195.100 329.600,197.857 326.594,196.000 325.600 C 195.476 325.319,195.200 324.762,195.200 323.983 C 195.200 323.214,194.847 322.488,194.200 321.925 C 192.984 320.868,192.922 319.840,194.027 319.066 C 194.668 318.617,194.825 318.141,194.727 316.944 L 194.600 315.400 187.231 315.291 C 180.413 315.190,179.821 315.122,179.308 314.391 C 178.500 313.237,174.173 313.226,173.807 314.377 M237.100 324.993 C 235.605 326.309,235.458 330.375,236.869 331.364 C 237.682 331.933,237.735 332.268,237.676 336.524 L 237.614 341.075 239.097 342.038 C 239.912 342.567,240.769 343.360,241.001 343.800 C 242.045 345.785,245.200 348.152,245.200 346.950 C 245.200 346.813,243.760 345.284,242.000 343.552 L 238.800 340.403 238.800 335.874 C 238.800 331.541,238.757 331.307,237.800 330.475 C 237.108 329.873,236.800 329.195,236.800 328.275 C 236.800 327.354,237.108 326.676,237.800 326.075 C 238.736 325.261,239.170 323.984,238.500 324.013 C 238.335 324.020,237.705 324.461,237.100 324.993 M154.400 331.585 C 154.400 334.222,154.469 334.449,155.406 334.875 C 156.277 335.272,156.378 335.512,156.162 336.664 C 155.825 338.456,156.229 339.862,157.148 340.102 C 157.782 340.268,157.931 340.772,158.069 343.212 C 158.207 345.669,158.371 346.216,159.117 346.711 C 159.639 347.058,160.000 347.710,160.000 348.306 C 160.000 349.486,162.283 352.020,163.073 351.717 C 163.939 351.384,163.736 348.677,162.800 348.093 C 161.765 347.446,161.604 343.600,162.613 343.600 C 162.949 343.600,163.329 343.870,163.455 344.200 C 163.582 344.530,163.949 344.800,164.271 344.800 C 164.768 344.800,164.761 344.704,164.229 344.171 C 163.883 343.826,163.600 343.363,163.600 343.144 C 163.600 342.924,163.195 342.802,162.700 342.872 C 161.376 343.060,161.115 347.785,162.380 348.671 C 163.169 349.224,163.468 350.398,162.951 350.915 C 162.479 351.388,160.400 348.876,160.400 347.834 C 160.400 347.240,160.063 346.596,159.600 346.307 C 158.920 345.883,158.800 345.374,158.800 342.926 C 158.800 340.585,158.662 339.947,158.064 339.523 C 157.577 339.177,157.243 338.269,157.076 336.841 C 156.911 335.429,156.543 334.420,156.012 333.925 C 155.409 333.364,155.200 332.663,155.200 331.208 C 155.200 330.130,155.020 329.136,154.800 329.000 C 154.548 328.844,154.400 329.799,154.400 331.585 M227.600 336.800 C 227.253 337.449,226.762 337.600,225.000 337.600 C 223.238 337.600,222.747 337.751,222.400 338.400 C 221.903 339.328,221.200 339.461,221.200 338.627 C 221.200 337.823,219.589 337.374,219.156 338.057 C 218.644 338.866,218.719 339.143,219.600 339.693 C 220.099 340.004,220.400 340.626,220.400 341.342 C 220.400 343.540,222.838 345.200,226.064 345.200 C 228.386 345.200,228.834 345.317,229.212 346.022 C 229.567 346.686,229.972 346.820,231.326 346.722 L 233.000 346.600 233.200 344.393 C 233.378 342.425,233.586 342.011,235.117 340.569 C 236.800 338.984,237.111 337.600,235.784 337.600 C 235.493 337.600,235.140 337.240,235.000 336.800 C 234.773 336.084,234.395 336.000,231.387 336.000 C 228.438 336.000,227.976 336.098,227.600 336.800 M165.200 347.413 C 165.200 347.749,165.478 348.132,165.817 348.262 C 166.721 348.609,166.769 348.298,165.933 347.500 C 165.313 346.908,165.200 346.894,165.200 347.413 M146.350 348.258 C 146.142 348.511,146.023 350.581,146.086 352.858 L 146.200 357.000 147.513 357.126 C 148.275 357.200,149.029 357.577,149.309 358.026 C 150.000 359.133,153.041 359.130,153.393 358.023 C 153.567 357.473,154.072 357.210,155.120 357.123 L 156.600 357.000 156.716 353.734 C 156.884 348.989,156.133 348.278,150.665 348.000 C 147.971 347.863,146.610 347.945,146.350 348.258 M245.254 348.697 C 245.189 349.777,247.415 352.046,248.233 351.732 C 248.545 351.612,248.795 351.129,248.788 350.657 C 248.776 349.857,248.747 349.849,248.349 350.534 C 247.940 351.237,247.890 351.232,247.146 350.434 C 246.718 349.975,246.208 349.600,246.012 349.600 C 245.816 349.600,245.578 349.195,245.482 348.700 L 245.309 347.800 245.254 348.697 M166.800 350.732 C 166.800 351.251,167.896 352.104,168.350 351.938 C 168.557 351.862,168.293 351.477,167.763 351.081 C 167.233 350.686,166.800 350.529,166.800 350.732 M168.854 354.100 C 168.807 355.058,168.942 355.193,169.900 355.146 C 170.806 355.101,170.845 355.061,170.125 354.921 C 169.619 354.823,169.177 354.381,169.079 353.875 C 168.939 353.155,168.899 353.194,168.854 354.100 M173.879 357.516 C 174.013 358.067,174.641 358.657,175.456 358.998 C 176.202 359.309,176.910 359.821,177.030 360.135 C 177.151 360.449,177.998 360.825,178.913 360.972 C 179.828 361.118,180.701 361.440,180.854 361.688 C 181.007 361.935,181.733 362.332,182.466 362.569 L 183.800 363.000 183.916 366.747 L 184.031 370.494 185.816 372.279 C 186.797 373.260,187.600 374.325,187.600 374.645 C 187.600 375.685,190.280 378.000,191.487 378.003 C 194.146 378.009,194.382 380.854,191.879 382.734 C 191.347 383.133,191.189 383.702,191.279 384.906 C 191.418 386.784,192.013 387.173,193.064 386.073 C 193.545 385.570,194.546 385.234,195.954 385.105 C 197.389 384.973,198.232 384.686,198.479 384.245 C 199.000 383.314,199.600 383.830,199.600 385.210 C 199.600 385.962,199.882 386.523,200.400 386.800 C 200.923 387.080,201.200 387.638,201.200 388.411 C 201.200 389.160,201.493 389.776,202.000 390.093 C 202.440 390.368,202.800 391.011,202.800 391.523 C 202.800 392.778,203.497 394.000,204.214 394.000 C 204.601 394.000,204.800 394.415,204.800 395.220 C 204.800 396.073,205.222 396.874,206.203 397.885 C 207.472 399.191,207.549 399.394,207.003 399.996 C 205.718 401.417,206.447 404.400,208.080 404.400 C 208.952 404.400,209.035 403.665,208.200 403.345 C 207.319 403.006,207.453 401.084,208.400 400.493 C 209.558 399.770,209.411 399.320,207.400 397.420 C 206.150 396.240,205.600 395.397,205.600 394.663 C 205.600 394.040,205.272 393.402,204.800 393.107 C 204.269 392.775,204.000 392.174,204.000 391.318 C 204.000 390.464,203.745 389.892,203.247 389.625 C 202.832 389.403,202.374 388.589,202.229 387.816 C 202.082 387.028,201.621 386.225,201.183 385.991 C 199.126 384.890,200.463 383.200,203.390 383.200 C 205.359 383.200,205.600 382.868,205.600 380.154 C 205.600 376.891,203.756 375.600,199.093 375.600 C 195.017 375.600,194.400 375.873,194.400 377.680 C 194.400 378.865,193.730 379.204,193.349 378.211 C 193.224 377.887,192.496 377.504,191.729 377.360 C 189.953 377.027,188.400 375.492,188.400 374.069 C 188.400 373.274,187.908 372.540,186.603 371.387 L 184.806 369.800 184.803 366.180 C 184.800 362.230,184.515 361.600,182.734 361.600 C 182.038 361.600,181.470 361.304,181.200 360.800 C 180.920 360.277,180.362 360.000,179.589 360.000 C 178.840 360.000,178.224 359.707,177.907 359.200 C 177.580 358.676,176.974 358.400,176.153 358.400 C 175.302 358.400,174.698 358.110,174.277 357.500 L 173.657 356.600 173.879 357.516 M214.533 362.581 C 215.238 363.115,215.234 363.154,214.433 363.582 C 213.975 363.828,213.600 364.280,213.600 364.587 C 213.600 364.895,213.240 365.260,212.800 365.400 C 211.765 365.728,211.594 369.200,212.613 369.200 C 212.949 369.200,213.343 369.515,213.488 369.900 C 214.252 371.933,215.846 372.714,219.531 372.860 C 223.199 373.005,225.600 374.301,225.600 376.135 C 225.600 376.793,219.827 382.800,219.195 382.800 C 218.978 382.800,218.800 383.815,218.800 385.056 C 218.800 386.735,218.621 387.448,218.100 387.843 C 217.435 388.348,217.435 388.375,218.113 388.387 C 218.921 388.402,219.043 388.130,219.386 385.555 C 219.645 383.618,223.722 378.796,225.609 378.197 C 227.486 377.601,225.706 372.000,223.640 372.000 C 223.398 372.000,223.200 371.820,223.200 371.600 C 223.200 371.380,223.695 371.198,224.300 371.196 C 226.419 371.188,228.064 368.889,227.921 366.136 L 227.800 363.800 222.140 363.600 C 217.500 363.436,216.341 363.274,215.709 362.700 C 215.284 362.315,214.681 362.006,214.369 362.013 C 213.952 362.022,213.996 362.174,214.533 362.581 M154.818 369.439 L 152.636 371.626 153.677 372.592 C 154.250 373.123,154.797 373.792,154.893 374.079 C 155.391 375.574,164.000 374.717,164.000 373.171 C 164.000 372.967,164.258 372.800,164.573 372.800 C 164.888 372.800,165.254 372.459,165.386 372.043 C 165.518 371.627,165.995 371.190,166.445 371.072 C 167.967 370.674,167.270 369.022,165.520 368.877 C 164.472 368.790,163.967 368.527,163.793 367.977 C 163.574 367.288,163.175 367.203,160.273 367.226 L 157.000 367.252 154.818 369.439 M217.260 394.688 C 217.223 395.229,215.792 396.968,213.600 399.136 C 210.244 402.453,209.422 403.600,210.400 403.600 C 210.620 403.600,210.800 403.443,210.800 403.252 C 210.800 403.061,212.340 401.333,214.223 399.412 C 217.086 396.489,217.619 395.746,217.483 394.859 C 217.348 393.982,217.310 393.952,217.260 394.688 " stroke="none" fill="#adccda" fill-rule="evenodd"></path></g></svg>